<svg xmlns="http://www.w3.org/2000/svg" width="512" height="512" viewBox="0 0 100 100" fill="none">
	<defs>
		<filter id="rg-h4">
			<feGaussianBlur stdDeviation="2.5" result="b"/>
			<feMerge><feMergeNode in="b"/><feMergeNode in="SourceGraphic"/></feMerge>
		</filter>
	</defs>
	<rect width="100" height="100" fill="#161420"/>
	<circle cx="50" cy="50" r="46" stroke="rgba(236,233,240,0.09)" stroke-width="0.7" fill="none"/>
	<circle cx="50" cy="50" r="40" stroke="rgba(236,233,240,0.07)" stroke-width="0.7" fill="none"/>
	<circle cx="50" cy="50" r="34" stroke="rgba(236,233,240,0.07)" stroke-width="0.7" fill="none"/>
	<circle cx="50" cy="50" r="28" stroke="rgba(236,233,240,0.06)" stroke-width="0.7" fill="none"/>
	<circle cx="50" cy="50" r="22" stroke="rgba(236,233,240,0.06)" stroke-width="0.7" fill="none"/>
	<circle cx="50" cy="50" r="16" stroke="rgba(236,233,240,0.05)" stroke-width="0.7" fill="none"/>
	<circle cx="50" cy="50" r="43" stroke="oklch(65% 0.20 22)" stroke-width="1.5" fill="none" filter="url(#rg-h4)" opacity="0.92"/>
	<path d="M 50 24 A 7 7 0 0 0 50 38" stroke="rgba(236,233,240,0.85)" stroke-width="2.2" stroke-linecap="round" fill="none"/>
	<path d="M 50 20 A 11 11 0 0 0 50 42" stroke="rgba(236,233,240,0.52)" stroke-width="1.8" stroke-linecap="round" fill="none"/>
	<path d="M 50 16 A 15 15 0 0 0 50 46" stroke="rgba(236,233,240,0.26)" stroke-width="1.4" stroke-linecap="round" fill="none"/>
	<path d="M 50 24 A 7 7 0 0 1 50 38" stroke="rgba(236,233,240,0.85)" stroke-width="2.2" stroke-linecap="round" fill="none"/>
	<path d="M 50 20 A 11 11 0 0 1 50 42" stroke="rgba(236,233,240,0.52)" stroke-width="1.8" stroke-linecap="round" fill="none"/>
	<path d="M 50 16 A 15 15 0 0 1 50 46" stroke="rgba(236,233,240,0.26)" stroke-width="1.4" stroke-linecap="round" fill="none"/>
	<line x1="46" y1="41" x2="31" y2="74" stroke="rgba(236,233,240,0.88)" stroke-width="1.8" stroke-linecap="round"/>
	<line x1="54" y1="41" x2="69" y2="74" stroke="rgba(236,233,240,0.88)" stroke-width="1.8" stroke-linecap="round"/>
	<line x1="46" y1="41" x2="54" y2="41" stroke="rgba(236,233,240,0.88)" stroke-width="1.8" stroke-linecap="round"/>
	<line x1="41" y1="52" x2="59" y2="52" stroke="rgba(236,233,240,0.80)" stroke-width="1.5" stroke-linecap="round"/>
	<line x1="36" y1="63" x2="64" y2="63" stroke="rgba(236,233,240,0.75)" stroke-width="1.5" stroke-linecap="round"/>
	<line x1="31" y1="74" x2="69" y2="74" stroke="rgba(236,233,240,0.88)" stroke-width="1.8" stroke-linecap="round"/>
	<line x1="46" y1="41" x2="59" y2="52" stroke="rgba(236,233,240,0.55)" stroke-width="1.2" stroke-linecap="round"/>
	<line x1="54" y1="41" x2="41" y2="52" stroke="rgba(236,233,240,0.55)" stroke-width="1.2" stroke-linecap="round"/>
	<line x1="41" y1="52" x2="64" y2="63" stroke="rgba(236,233,240,0.50)" stroke-width="1.2" stroke-linecap="round"/>
	<line x1="59" y1="52" x2="36" y2="63" stroke="rgba(236,233,240,0.50)" stroke-width="1.2" stroke-linecap="round"/>
	<line x1="36" y1="63" x2="69" y2="74" stroke="rgba(236,233,240,0.45)" stroke-width="1.2" stroke-linecap="round"/>
	<line x1="64" y1="63" x2="31" y2="74" stroke="rgba(236,233,240,0.45)" stroke-width="1.2" stroke-linecap="round"/>
	<line x1="50" y1="34" x2="50" y2="41" stroke="rgba(236,233,240,0.88)" stroke-width="1.8" stroke-linecap="round"/>
	<circle cx="50" cy="31" r="3" stroke="rgba(236,233,240,0.88)" stroke-width="1.8" fill="#161420"/>
</svg>
